# xmcd CD database file
#
# Track frame offsets:
#	150
#	12850
#	25360
#	37107
#	49835
#	62561
#	77687
#	90512
#	103163
#	117622
#	130070
#	143093
#	156068
#	168901
#	181805
#	194887
#	207800
#	220811
#	233799
#
# Disc length: 3289 seconds
#
# Revision: 0
# Processed by: cddbd v1.5.1PL0 Copyright (c) Steve Scherf et al.
# Submitted via: CDex 1.51
#
DISCID=080cd713
DTITLE=fats waller - just jazz volume 4
DYEAR=1900
DGENRE=Jazz
TTITLE0=twelfth street rag
TTITLE1=you outsmarted yourself
TTITLE2=i can't break the habit of you
TTITLE3=i've got a feeling, i'm falling
TTITLE4=oh! baby sweet baby
TTITLE5=fat wallers original e flat blues
TTITLE6=florida flo
TTITLE7=i used to love in you
TTITLE8=i've never forgive myself
TTITLE9=the moon is law
TTITLE10=a sweet beguinning like this
TTITLE11=s'posin'
TTITLE12=tain' t what you do
TTITLE13=you've got me under your thumb
TTITLE14=copper colored gal
TTITLE15=i just made up with that old girl of mine
TTITLE16=jealous of me
TTITLE17=numb fumbling
TTITLE18=thief in the night
EXTD=
EXTT0=
EXTT1=
EXTT2=
EXTT3=
EXTT4=
EXTT5=
EXTT6=
EXTT7=
EXTT8=
EXTT9=
EXTT10=
EXTT11=
EXTT12=
EXTT13=
EXTT14=
EXTT15=
EXTT16=
EXTT17=
EXTT18=
PLAYORDER=
